<?xml version="1.0" standalone="no"?>
<!DOCTYPE svg PUBLIC "-//W3C//DTD SVG 20010904//EN"
 "http://www.w3.org/TR/2001/REC-SVG-20010904/DTD/svg10.dtd">
<svg version="1.0" xmlns="http://www.w3.org/2000/svg"
 width="122.000000pt" height="122.000000pt" viewBox="0 0 122.000000 122.000000"
 preserveAspectRatio="xMidYMid meet">
<metadata>
Created by potrace 1.14, written by Peter Selinger 2001-2017
</metadata>
<g transform="translate(0.000000,122.000000) scale(0.100000,-0.100000)"
fill="#000000" stroke="none">
<path d="M495 1176 c-117 -53 -186 -162 -181 -286 10 -261 322 -384 506 -200
61 61 85 119 85 210 0 91 -24 149 -85 210 -58 58 -119 83 -205 86 -54 2 -81
-3 -120 -20z"/>
<path d="M384 627 c-2 -7 -3 -110 -1 -228 4 -237 7 -250 76 -316 62 -59 175
-77 248 -39 50 25 99 80 115 128 17 50 24 432 8 458 -23 37 -30 -12 -33 -221
-2 -195 -4 -217 -22 -249 -87 -147 -300 -118 -344 46 -6 23 -11 123 -11 228 1
102 -2 191 -5 196 -9 14 -25 12 -31 -3z"/>
</g>
</svg>
