<?xml version="1.0" encoding="UTF-8"?>
<svg width="98px" height="98px" viewBox="0 0 98 98" version="1.1" xmlns="http://www.w3.org/2000/svg" xmlns:xlink="http://www.w3.org/1999/xlink">
    <title>streamline-icon-cash-payment-bag@150x150</title>
    <g id="Page-1" stroke="none" stroke-width="1" fill="none" fill-rule="evenodd" stroke-linecap="round" stroke-linejoin="round">
        <g id="SecureU-Landing-Page-V4b" transform="translate(-540.000000, -2548.000000)" stroke-width="4">
            <g id="Agent" transform="translate(1.000000, 2267.000000)">
                <g id="List" transform="translate(126.500000, 281.000000)">
                    <g id="streamline-icon-cash-payment-bag@150x150" transform="translate(412.500000, 2.000000)">
                        <line x1="2" y1="56" x2="2" y2="94" id="Path" stroke="#1D1D3D"></line>
                        <path d="M2,87 L71,87 C71,80.0964406 65.3832087,74.5 58.4545455,74.5 L42.7727273,74.5 C42.7727273,67.5964406 37.155936,62 30.2272727,62 L2,62" id="Path" stroke="#1D1D3D"></path>
                        <line x1="27" y1="75" x2="43" y2="75" id="Path" stroke="#1D1D3D"></line>
                        <path d="M83.3588283,72 C92.6875187,65.0975065 97.4094495,53.637313 95.6295474,42.2187894 C93.8496452,30.8002659 85.8596757,21.2951624 74.8662886,17.5182041 L82.6490166,4.29304962 C83.1714848,3.40814569 83.1714848,2.31180808 82.6490166,1.42690415 C82.1074165,0.534388215 81.131876,-0.00800625836 80.0827744,0 L48.9182618,0 C47.8721482,-0.00505473838 46.9004863,0.536957439 46.3604197,1.42690415 C45.8379515,2.31180808 45.8379515,3.40814569 46.3604197,4.29304962 L54.1431477,17.5182041 C41.5117115,21.8557648 33.0279509,33.6592692 33,46.934786" id="Path" stroke="#1D1D3D"></path>
                        <path d="M55.8250425,54.3182467 C57.6381735,56.7423973 60.4989695,58.1138282 63.489687,57.9925841 C68.1883038,57.9925841 72,55.0825089 72,51.4963556 C72,47.9102022 68.1883038,45.0043262 63.489687,45.0043262 C58.7910701,45.0043262 55,42.094251 55,38.5038984 C55,34.9135458 58.8116962,32.0076698 63.5061878,32.0076698 C66.4973358,31.8842637 69.3590645,33.2561417 71.1708323,35.6820073" id="Path" stroke="#658DE4"></path>
                        <line x1="64" y1="58" x2="64" y2="62" id="Path" stroke="#658DE4"></line>
                        <line x1="64" y1="28" x2="64" y2="32" id="Path" stroke="#658DE4"></line>
                    </g>
                </g>
            </g>
        </g>
    </g>
</svg>