<?xml version="1.0" encoding="UTF-8"?>
<svg width="94px" height="94px" viewBox="0 0 94 94" version="1.1" xmlns="http://www.w3.org/2000/svg" xmlns:xlink="http://www.w3.org/1999/xlink">
    <title>streamline-icon-rating-star-badge@150x150</title>
    <g id="Page-1" stroke="none" stroke-width="1" fill="none" fill-rule="evenodd" stroke-linecap="round" stroke-linejoin="round">
        <g id="SecureU-Landing-Page-V4b" transform="translate(-207.000000, -2548.000000)" stroke-width="4">
            <g id="Agent" transform="translate(1.000000, 2267.000000)">
                <g id="List" transform="translate(126.500000, 281.000000)">
                    <g id="streamline-icon-rating-star-badge@150x150" transform="translate(81.500000, 2.000000)">
                        <path d="M90,36.752 C90.0016016,63.103612 70.9830399,85.6080647 45,90 C19.0169601,85.6080647 -0.00160156082,63.103612 0,36.752 L0,0 L90,0 L90,36.752 Z" id="Path" stroke="#1D1D3D"></path>
                        <line x1="0" y1="17" x2="90" y2="17" id="Path" stroke="#1D1D3D"></line>
                        <path d="M47.1189503,32.3022783 L52.1124765,42.1275918 L60.6162638,42.1275918 C61.5743542,42.1041965 62.4487899,42.6705178 62.8191528,43.5542751 C63.1895156,44.4380325 62.9800379,45.4584294 62.2914339,46.1248715 L54.483302,53.807643 L58.809159,63.7408831 C59.1973265,64.6733325 58.9474171,65.7494361 58.1880231,66.4154797 C57.428629,67.0815234 56.3289459,67.1891102 55.4548208,66.682881 L45,60.7908907 L34.5451792,66.6668918 C33.6710541,67.1731211 32.571371,67.0655343 31.8119769,66.3994906 C31.0525829,65.7334469 30.8026735,64.6573434 31.190841,63.724894 L35.516698,53.7916539 L27.7085661,46.1088823 C27.0199621,45.4424403 26.8104844,44.4220434 27.1808472,43.538286 C27.5512101,42.6545286 28.4256458,42.0882074 29.3837362,42.1116026 L37.8875235,42.1116026 L42.8810497,32.3022783 C43.2853428,31.5035139 44.1046154,31 45,31 C45.8953846,31 46.7146572,31.5035139 47.1189503,32.3022783 Z" id="Path" stroke="#658DE4"></path>
                    </g>
                </g>
            </g>
        </g>
    </g>
</svg>